<?xml version="1.0" standalone="yes"?>

<svg version="1.1" viewBox="0.0 0.0 256.0 256.0" fill="none" stroke="none" stroke-linecap="square" stroke-miterlimit="10" xmlns="http://www.w3.org/2000/svg" xmlns:xlink="http://www.w3.org/1999/xlink"><clipPath id="p.0"><path d="m0 0l256.0 0l0 256.0l-256.0 0l0 -256.0z" clip-rule="nonzero"></path></clipPath><g clip-path="url(#p.0)"><path fill="#0c343d" d="m0 0l256.0 0l0 256.0l-256.0 0z" fill-rule="nonzero"></path><path fill="#000000" fill-opacity="0.0" d="m0.31233597 0.31233597l256.0 0l0 256.0l-256.0 0z" fill-rule="nonzero"></path><path stroke="#ffffff" stroke-width="3.0" stroke-linejoin="round" stroke-linecap="butt" d="m0.31233597 0.31233597l256.0 0l0 256.0l-256.0 0z" fill-rule="nonzero"></path><path fill="#e69138" d="m26.613646 156.3008l31.22497 -39.169533l-11.143829 -48.84397l50.080795 7.6293945E-5l31.224419 -39.169777l31.224411 39.169777l50.08081 -7.6293945E-5l-11.143829 48.84397l31.22496 39.169533l-45.12152 21.737564l-11.14415 48.844055l-45.12068 -21.737839l-45.12069 21.737839l-11.144142 -48.844055z" fill-rule="nonzero"></path><path stroke="#ffffff" stroke-width="3.0" stroke-linejoin="round" stroke-linecap="butt" d="m26.613646 156.3008l31.22497 -39.169533l-11.143829 -48.84397l50.080795 7.6293945E-5l31.224419 -39.169777l31.224411 39.169777l50.08081 -7.6293945E-5l-11.143829 48.84397l31.22496 39.169533l-45.12152 21.737564l-11.14415 48.844055l-45.12068 -21.737839l-45.12069 21.737839l-11.144142 -48.844055z" fill-rule="nonzero"></path></g></svg>

